[Header]
FileType HTR
DataType HTRS
FileVersion 1
NumSegments 64
NumFrames 4
DataFrameRate 30
EulerRotationOrder ZYX
CalibrationUnits mm
RotationUnits Degrees
GlobalAxisofGravity Y
BoneLengthAxis Y
ScaleFactor 1.0
[SegmentNames&Hierarchy]
Hips	GLOBAL
Spine	Hips
Spine1	Spine
Spine2	Spine1
Neck	Spine2
Head	Neck
LeftEye	Head
RightEye	Head
LeftShoulder	Spine2
LeftArm	LeftShoulder
LeftForeArm	LeftArm
LeftHand	LeftForeArm
LeftHandThumb1	LeftHand
LeftHandThumb2	LeftHandThumb1
LeftHandThumb3	LeftHandThumb2
LeftHandThumb4	LeftHandThumb3
LeftHandIndex1	LeftHand
LeftHandIndex2	LeftHandIndex1
LeftHandIndex3	LeftHandIndex2
LeftHandIndex4	LeftHandIndex3
LeftHandMiddle1	LeftHand
LeftHandMiddle2	LeftHandMiddle1
LeftHandMiddle3	LeftHandMiddle2
LeftHandMiddle4	LeftHandMiddle3
LeftHandRing1	LeftHand
LeftHandRing2	LeftHandRing1
LeftHandRing3	LeftHandRing2
LeftHandRing4	LeftHandRing3
LeftHandPinky1	LeftHand
LeftHandPinky2	LeftHandPinky1
LeftHandPinky3	LeftHandPinky2
LeftHandPinky4	LeftHandPinky3
RightShoulder	Spine2
RightArm	RightShoulder
RightForeArm	RightArm
RightHand	RightForeArm
RightHandPinky1	RightHand
RightHandPinky2	RightHandPinky1
RightHandPinky3	RightHandPinky2
RightHandPinky4	RightHandPinky3
RightHandRing1	RightHand
RightHandRing2	RightHandRing1
RightHandRing3	RightHandRing2
RightHandRing4	RightHandRing3
RightHandMiddle1	RightHand
RightHandMiddle2	RightHandMiddle1
RightHandMiddle3	RightHandMiddle2
RightHandMiddle4	RightHandMiddle3
RightHandIndex1	RightHand
RightHandIndex2	RightHandIndex1
RightHandIndex3	RightHandIndex2
RightHandIndex4	RightHandIndex3
RightHandThumb1	RightHand
RightHandThumb2	RightHandThumb1
RightHandThumb3	RightHandThumb2
RightHandThumb4	RightHandThumb3
LeftUpLeg	Hips
LeftLeg	LeftUpLeg
LeftFoot	LeftLeg
LeftToeBase	LeftFoot
RightUpLeg	Hips
RightLeg	RightUpLeg
RightFoot	RightLeg
RightToeBase	RightFoot
[BasePosition]
Hips	0	0	0	0	0	0	1
Spine	0	0	0	0	0	0	1
Spine1	0	0	0	0	0	0	1
Spine2	0	0	0	0	0	0	1
Neck	0	0	0	0	0	0	1
Head	0	0	0	0	0	0	1
LeftEye	0	0	0	0	0	0	1
RightEye	0	0	0	0	0	0	1
LeftShoulder	0	0	0	0	0	0	1
LeftArm	0	0	0	0	0	0	1
LeftForeArm	0	0	0	0	0	0	1
LeftHand	0	0	0	0	0	0	1
LeftHandThumb1	0	0	0	0	0	0	1
LeftHandThumb2	0	0	0	0	0	0	1
LeftHandThumb3	0	0	0	0	0	0	1
LeftHandThumb4	0	0	0	0	0	0	1
LeftHandIndex1	0	0	0	0	0	0	1
LeftHandIndex2	0	0	0	0	0	0	1
LeftHandIndex3	0	0	0	0	0	0	1
LeftHandIndex4	0	0	0	0	0	0	1
LeftHandMiddle1	0	0	0	0	0	0	1
LeftHandMiddle2	0	0	0	0	0	0	1
LeftHandMiddle3	0	0	0	0	0	0	1
LeftHandMiddle4	0	0	0	0	0	0	1
LeftHandRing1	0	0	0	0	0	0	1
LeftHandRing2	0	0	0	0	0	0	1
LeftHandRing3	0	0	0	0	0	0	1
LeftHandRing4	0	0	0	0	0	0	1
LeftHandPinky1	0	0	0	0	0	0	1
LeftHandPinky2	0	0	0	0	0	0	1
LeftHandPinky3	0	0	0	0	0	0	1
LeftHandPinky4	0	0	0	0	0	0	1
RightShoulder	0	0	0	0	0	0	1
RightArm	0	0	0	0	0	0	1
RightForeArm	0	0	0	0	0	0	1
RightHand	0	0	0	0	0	0	1
RightHandPinky1	0	0	0	0	0	0	1
RightHandPinky2	0	0	0	0	0	0	1
RightHandPinky3	0	0	0	0	0	0	1
RightHandPinky4	0	0	0	0	0	0	1
RightHandRing1	0	0	0	0	0	0	1
RightHandRing2	0	0	0	0	0	0	1
RightHandRing3	0	0	0	0	0	0	1
RightHandRing4	0	0	0	0	0	0	1
RightHandMiddle1	0	0	0	0	0	0	1
RightHandMiddle2	0	0	0	0	0	0	1
RightHandMiddle3	0	0	0	0	0	0	1
RightHandMiddle4	0	0	0	0	0	0	1
RightHandIndex1	0	0	0	0	0	0	1
RightHandIndex2	0	0	0	0	0	0	1
RightHandIndex3	0	0	0	0	0	0	1
RightHandIndex4	0	0	0	0	0	0	1
RightHandThumb1	0	0	0	0	0	0	1
RightHandThumb2	0	0	0	0	0	0	1
RightHandThumb3	0	0	0	0	0	0	1
RightHandThumb4	0	0	0	0	0	0	1
LeftUpLeg	0	0	0	0	0	0	1
LeftLeg	0	0	0	0	0	0	1
LeftFoot	0	0	0	0	0	0	1
LeftToeBase	0	0	0	0	0	0	1
RightUpLeg	0	0	0	0	0	0	1
RightLeg	0	0	0	0	0	0	1
RightFoot	0	0	0	0	0	0	1
RightToeBase	0	0	0	0	0	0	1
[Hips]
204	-3.646438122	1033.466553	18.15604973	-3.891017914	-5.364768982	-3.048776627	1.0
205	-3.414920807	1033.454346	17.8081646	-3.874116421	-5.373798847	-3.062104225	1.0
206	-3.195068836	1033.454102	17.47281075	-3.849633217	-5.382223606	-3.07483387	1.0
207	-2.982143164	1033.481201	17.16339493	-3.821645975	-5.392875195	-3.086327314	1.0
[Spine]
204	0	101.8159943	1.315000057	4.255631447	1.744354129	3.190446615	1.0
205	0	101.8159943	1.315000057	4.232541084	1.711382151	3.1766119	1.0
206	0	101.8159943	1.315000057	4.198211193	1.678472161	3.160716057	1.0
207	0	101.8159943	1.315000057	4.15358448	1.651505351	3.143725157	1.0
[Spine1]
204	0	100.8349991	-10.00800037	1.408453465	0.4654487073	1.690478921	1.0
205	0	100.8349991	-10.00800037	1.4043957	0.4517083168	1.686552644	1.0
206	0	100.8349991	-10.00800037	1.396451473	0.4378337562	1.682170868	1.0
207	0	100.8349991	-10.00800037	1.384927034	0.4262711406	1.677303195	1.0
[Spine2]
204	0	91	-13.73399925	1.383545995	0.4885279238	1.691591263	1.0
205	0	91	-13.73399925	1.379459381	0.4747991264	1.687814355	1.0
206	0	91	-13.73399925	1.371485591	0.4609308541	1.683591366	1.0
207	0	91	-13.73399925	1.359931588	0.4493669868	1.678880095	1.0
[Neck]
204	0	166.7169952	-25.16200066	6.124554157	-0.2741828263	0.4550459385	1.0
205	0	166.7169952	-25.16200066	6.05962944	-0.2654528022	0.4726228416	1.0
206	0	166.7169952	-25.16200066	6.001121998	-0.2569902837	0.4875919223	1.0
207	0	166.7169952	-25.16200066	5.953195095	-0.2524361908	0.4984883666	1.0
[Head]
204	0	96.17900085	16.84999847	-8.618795395	0.8130228519	0.03181030601	1.0
205	0	96.17900085	16.84999847	-8.686029434	0.8625813723	0.01867784373	1.0
206	0	96.17900085	16.84999847	-8.730493546	0.9066846371	0.006003125105	1.0
207	0	96.17900085	16.84999847	-8.741099358	0.9308580756	-0.01169863623	1.0
[LeftEye]
204	30.6760006	64.09500122	92.83599854	0	0	0	1.0
205	30.6760006	64.09500122	92.83599854	0	0	0	1.0
206	30.6760006	64.09500122	92.83599854	0	0	0	1.0
207	30.6760006	64.09500122	92.83599854	0	0	0	1.0
[RightEye]
204	-30.6760006	64.09500122	92.83499908	0	0	0	1.0
205	-30.6760006	64.09500122	92.83499908	0	0	0	1.0
206	-30.6760006	64.09500122	92.83499908	0	0	0	1.0
207	-30.6760006	64.09500122	92.83499908	0	0	0	1.0
[LeftShoulder]
204	45.70400238	109.4599991	-26.28000069	4.997691154	-17.38155746	-13.47609138	1.0
205	45.70400238	109.4599991	-26.28000069	4.985003948	-17.3576355	-13.41765213	1.0
206	45.70400238	109.4599991	-26.28000069	4.972446442	-17.32735634	-13.36231327	1.0
207	45.70400238	109.4599991	-26.28000069	4.961193085	-17.29823494	-13.31335258	1.0
[LeftArm]
204	105.923996	-5.24600029	-22.32099915	20.20976067	-3.970799446	-71.07981873	1.0
205	105.923996	-5.24600029	-22.32099915	20.23919106	-3.924114704	-71.12782288	1.0
206	105.923996	-5.24600029	-22.32099915	20.25318527	-3.863625765	-71.16970062	1.0
207	105.923996	-5.24600029	-22.32099915	20.24811554	-3.785798311	-71.20354462	1.0
[LeftForeArm]
204	278.414978	-0.0009999999311	0	3.62986998e-06	-1.550891876	-0.0002177604911	1.0
205	278.414978	-0.0009999999311	0	7.072786502e-06	-1.538145542	-0.000183693337	1.0
206	278.414978	-0.0009999999311	0	-6.442875019e-06	-1.531564832	-0.0001815421128	1.0
207	278.414978	-0.0009999999311	0	-1.411093126e-05	-1.536113739	-0.0001702461886	1.0
[LeftHand]
204	283.2879944	0	0	-33.56550598	-4.919095039	-3.547416449	1.0
205	283.2879944	0	0	-33.53730774	-4.882396221	-3.599410772	1.0
206	283.2879944	0	0	-33.52386093	-4.856929302	-3.659651756	1.0
207	283.2879944	0	0	-33.51438904	-4.84660387	-3.719583273	1.0
[LeftHandThumb1]
204	24.6609993	-15.75	26.8239994	-0.4889889657	2.201390743	4.818541527	1.0
205	24.6609993	-15.75	26.8239994	-0.4889889657	2.201390743	4.818541527	1.0
206	24.6609993	-15.75	26.8239994	-0.4889889657	2.201390743	4.818541527	1.0
207	24.6609993	-15.75	26.8239994	-0.4889889657	2.201390743	4.818541527	1.0
[LeftHandThumb2]
204	32.29800034	-18.64699936	18.64699936	19.88581276	19.96446037	23.26738167	1.0
205	32.29800034	-18.64699936	18.64699936	19.88581276	19.96446037	23.26738167	1.0
206	32.29800034	-18.64699936	18.64699936	19.88581276	19.96446037	23.26738167	1.0
207	32.29800034	-18.64699936	18.64699936	19.88581276	19.96446037	23.26738167	1.0
[LeftHandThumb3]
204	26.52600098	-15.31499958	15.31499958	-13.14535904	5.551738262	7.967928886	1.0
205	26.52600098	-15.31499958	15.31499958	-13.14535904	5.551738262	7.967928886	1.0
206	26.52600098	-15.31499958	15.31499958	-13.14535904	5.551738262	7.967928886	1.0
207	26.52600098	-15.31499958	15.31499958	-13.14535904	5.551738262	7.967928886	1.0
[LeftHandThumb4]
204	19.54599953	-11.28499985	11.28499985	0	0	0	1.0
205	19.54599953	-11.28499985	11.28499985	0	0	0	1.0
206	19.54599953	-11.28499985	11.28499985	0	0	0	1.0
207	19.54599953	-11.28499985	11.28499985	0	0	0	1.0
[LeftHandIndex1]
204	91.09299469	-5.170999527	22.60099792	0.1480516791	-0.9618676901	-7.594518185	1.0
205	91.09299469	-5.170999527	22.60099792	0.1480516791	-0.9618676901	-7.594518185	1.0
206	91.09299469	-5.170999527	22.60099792	0.1480516791	-0.9618676901	-7.594518185	1.0
207	91.09299469	-5.170999527	22.60099792	0.1480516791	-0.9618676901	-7.594518185	1.0
[LeftHandIndex2]
204	36.76399994	0	0	-0.2667043209	1.745171905	-17.37646866	1.0
205	36.76399994	0	0	-0.2667043209	1.745171905	-17.37646866	1.0
206	36.76399994	0	0	-0.2667043209	1.745171905	-17.37646866	1.0
207	36.76399994	0	0	-0.2667043209	1.745171905	-17.37646866	1.0
[LeftHandIndex3]
204	28.83100128	0	0	-0.05742863193	0.817338407	-8.038370132	1.0
205	28.83100128	0	0	-0.05742863193	0.817338407	-8.038370132	1.0
206	28.83100128	0	0	-0.05742863193	0.817338407	-8.038370132	1.0
207	28.83100128	0	0	-0.05742863193	0.817338407	-8.038370132	1.0
[LeftHandIndex4]
204	23.92700005	0	0	0	0	0	1.0
205	23.92700005	0	0	0	0	0	1.0
206	23.92700005	0	0	0	0	0	1.0
207	23.92700005	0	0	0	0	0	1.0
[LeftHandMiddle1]
204	95.33399963	0	0	-0.7942916155	2.538622379	-15.71737862	1.0
205	95.33399963	0	0	-0.7942916155	2.538622379	-15.71737862	1.0
206	95.33399963	0	0	-0.7942916155	2.538622379	-15.71737862	1.0
207	95.33399963	0	0	-0.7942916155	2.538622379	-15.71737862	1.0
[LeftHandMiddle2]
204	36.98199844	0	0	-0.267610997	1.748071074	-17.40625954	1.0
205	36.98199844	0	0	-0.267610997	1.748071074	-17.40625954	1.0
206	36.98199844	0	0	-0.267610997	1.748071074	-17.40625954	1.0
207	36.98199844	0	0	-0.267610997	1.748071074	-17.40625954	1.0
[LeftHandMiddle3]
204	29.50900078	0	0	-0.2992140949	1.84580946	-18.41413307	1.0
205	29.50900078	0	0	-0.2992140949	1.84580946	-18.41413307	1.0
206	29.50900078	0	0	-0.2992140949	1.84580946	-18.41413307	1.0
207	29.50900078	0	0	-0.2992140949	1.84580946	-18.41413307	1.0
[LeftHandMiddle4]
204	28.3390007	0	0	0	0	0	1.0
205	28.3390007	0	0	0	0	0	1.0
206	28.3390007	0	0	0	0	0	1.0
207	28.3390007	0	0	0	0	0	1.0
[LeftHandRing1]
204	91.04499817	-0.4390000105	-18.65100098	-1.184956431	3.436642885	-21.16632462	1.0
205	91.04499817	-0.4390000105	-18.65100098	-1.184956431	3.436642885	-21.16632462	1.0
206	91.04499817	-0.4390000105	-18.65100098	-1.184956431	3.436642885	-21.16632462	1.0
207	91.04499817	-0.4390000105	-18.65100098	-1.184956431	3.436642885	-21.16632462	1.0
[LeftHandRing2]
204	31.54000092	0	0	-0.3849357069	2.085560799	-20.91281319	1.0
205	31.54000092	0	0	-0.3849357069	2.085560799	-20.91281319	1.0
206	31.54000092	0	0	-0.3849357069	2.085560799	-20.91281319	1.0
207	31.54000092	0	0	-0.3849357069	2.085560799	-20.91281319	1.0
[LeftHandRing3]
204	29.37700081	0	0	-0.2818065584	1.792707562	-17.86576271	1.0
205	29.37700081	0	0	-0.2818065584	1.792707562	-17.86576271	1.0
206	29.37700081	0	0	-0.2818065584	1.792707562	-17.86576271	1.0
207	29.37700081	0	0	-0.2818065584	1.792707562	-17.86576271	1.0
[LeftHandRing4]
204	26.47500038	0	0	0	0	0	1.0
205	26.47500038	0	0	0	0	0	1.0
206	26.47500038	0	0	0	0	0	1.0
207	26.47500038	0	0	0	0	0	1.0
[LeftHandPinky1]
204	80.77799988	-4.887000084	-38.06099701	-1.708467126	5.355370045	-27.1653862	1.0
205	80.77799988	-4.887000084	-38.06099701	-1.708467126	5.355370045	-27.1653862	1.0
206	80.77799988	-4.887000084	-38.06099701	-1.708467126	5.355370045	-27.1653862	1.0
207	80.77799988	-4.887000084	-38.06099701	-1.708467126	5.355370045	-27.1653862	1.0
[LeftHandPinky2]
204	36	0	0	-0.2676221728	1.748113751	-17.40663528	1.0
205	36	0	0	-0.2676221728	1.748113751	-17.40663528	1.0
206	36	0	0	-0.2676221728	1.748113751	-17.40663528	1.0
207	36	0	0	-0.2676221728	1.748113751	-17.40663528	1.0
[LeftHandPinky3]
204	21.14200211	0	0	-0.2408525199	1.660349369	-16.50663185	1.0
205	21.14200211	0	0	-0.2408525199	1.660349369	-16.50663185	1.0
206	21.14200211	0	0	-0.2408525199	1.660349369	-16.50663185	1.0
207	21.14200211	0	0	-0.2408525199	1.660349369	-16.50663185	1.0
[LeftHandPinky4]
204	19.75699997	0	0	0	0	0	1.0
205	19.75699997	0	0	0	0	0	1.0
206	19.75699997	0	0	0	0	0	1.0
207	19.75699997	0	0	0	0	0	1.0
[RightShoulder]
204	-45.70000076	109.4620056	-26.28000069	5.30136919	15.31490517	15.81109619	1.0
205	-45.70000076	109.4620056	-26.28000069	5.300014496	15.33349705	15.79388428	1.0
206	-45.70000076	109.4620056	-26.28000069	5.295396328	15.32994843	15.76905346	1.0
207	-45.70000076	109.4620056	-26.28000069	5.287065983	15.29558086	15.73828125	1.0
[RightArm]
204	-105.9280014	-5.248000145	-22.32099915	29.74121475	1.847211123	62.45663452	1.0
205	-105.9280014	-5.248000145	-22.32099915	29.73789787	1.853155375	62.46017838	1.0
206	-105.9280014	-5.248000145	-22.32099915	29.73692703	1.866819501	62.48268509	1.0
207	-105.9280014	-5.248000145	-22.32099915	29.74988747	1.887603879	62.52051544	1.0
[RightForeArm]
204	-278.414978	0	0	-3.362555617e-06	6.651931286	2.085261622e-05	1.0
205	-278.414978	0	0	-4.73262935e-06	6.633893013	1.20797722e-05	1.0
206	-278.414978	0	0	-8.902450645e-06	6.622470379	1.104634612e-05	1.0
207	-278.414978	0	0	1.668090022e-06	6.6200037	2.727205356e-05	1.0
[RightHand]
204	-283.2879944	0	0.0009999999311	-20.18574524	1.660484552	6.039036274	1.0
205	-283.2879944	0	0.0009999999311	-20.18342972	1.692569613	6.07465744	1.0
206	-283.2879944	0	0.0009999999311	-20.17481041	1.709252954	6.075997353	1.0
207	-283.2879944	0	0.0009999999311	-20.16210938	1.70601368	6.058522224	1.0
[RightHandPinky1]
204	-80.76699829	-4.885000229	-38.06000137	-1.507175922	-4.696118355	26.50587463	1.0
205	-80.76699829	-4.885000229	-38.06000137	-1.507175922	-4.696118355	26.50587463	1.0
206	-80.76699829	-4.885000229	-38.06000137	-1.507175922	-4.696118355	26.50587463	1.0
207	-80.76699829	-4.885000229	-38.06000137	-1.507175922	-4.696118355	26.50587463	1.0
[RightHandPinky2]
204	-36	0	0.0009999999311	-0.2127676606	-1.388874292	17.43785858	1.0
205	-36	0	0.0009999999311	-0.2127676606	-1.388874292	17.43785858	1.0
206	-36	0	0.0009999999311	-0.2127676606	-1.388874292	17.43785858	1.0
207	-36	0	0.0009999999311	-0.2127676606	-1.388874292	17.43785858	1.0
[RightHandPinky3]
204	-21.14200211	0	0	-0.1919144988	-1.32059598	16.53641129	1.0
205	-21.14200211	0	0	-0.1919144988	-1.32059598	16.53641129	1.0
206	-21.14200211	0	0	-0.1919144988	-1.32059598	16.53641129	1.0
207	-21.14200211	0	0	-0.1919144988	-1.32059598	16.53641129	1.0
[RightHandPinky4]
204	-19.75699997	0	0	0	0	0	1.0
205	-19.75699997	0	0	0	0	0	1.0
206	-19.75699997	0	0	0	0	0	1.0
207	-19.75699997	0	0	0	0	0	1.0
[RightHandRing1]
204	-91.03599548	-0.4390000105	-18.65100098	-1.045235753	-2.883111477	20.47788429	1.0
205	-91.03599548	-0.4390000105	-18.65100098	-1.045235753	-2.883111477	20.47788429	1.0
206	-91.03599548	-0.4390000105	-18.65100098	-1.045235753	-2.883111477	20.47788429	1.0
207	-91.03599548	-0.4390000105	-18.65100098	-1.045235753	-2.883111477	20.47788429	1.0
[RightHandRing2]
204	-31.54000092	0	0	-0.3066971898	-1.658752441	20.94926834	1.0
205	-31.54000092	0	0	-0.3066971898	-1.658752441	20.94926834	1.0
206	-31.54000092	0	0	-0.3066971898	-1.658752441	20.94926834	1.0
207	-31.54000092	0	0	-0.3066971898	-1.658752441	20.94926834	1.0
[RightHandRing3]
204	-29.37700081	0	0	-0.2245407403	-1.425854325	17.89771652	1.0
205	-29.37700081	0	0	-0.2245407403	-1.425854325	17.89771652	1.0
206	-29.37700081	0	0	-0.2245407403	-1.425854325	17.89771652	1.0
207	-29.37700081	0	0	-0.2245407403	-1.425854325	17.89771652	1.0
[RightHandRing4]
204	-26.47500038	0	0	0	0	0	1.0
205	-26.47500038	0	0	0	0	0	1.0
206	-26.47500038	0	0	0	0	0	1.0
207	-26.47500038	0	0	0	0	0	1.0
[RightHandMiddle1]
204	-95.32500458	0	0	-0.7017197609	-2.087752104	15.0152874	1.0
205	-95.32500458	0	0	-0.7017197609	-2.087752104	15.0152874	1.0
206	-95.32500458	0	0	-0.7017197609	-2.087752104	15.0152874	1.0
207	-95.32500458	0	0	-0.7017197609	-2.087752104	15.0152874	1.0
[RightHandMiddle2]
204	-36.98199844	0	0	-0.213228479	-1.390354872	17.43750381	1.0
205	-36.98199844	0	0	-0.213228479	-1.390354872	17.43750381	1.0
206	-36.98199844	0	0	-0.213228479	-1.390354872	17.43750381	1.0
207	-36.98199844	0	0	-0.213228479	-1.390354872	17.43750381	1.0
[RightHandMiddle3]
204	-29.50900078	0	0	-0.2384106964	-1.470119596	18.44692802	1.0
205	-29.50900078	0	0	-0.2384106964	-1.470119596	18.44692802	1.0
206	-29.50900078	0	0	-0.2384106964	-1.470119596	18.44692802	1.0
207	-29.50900078	0	0	-0.2384106964	-1.470119596	18.44692802	1.0
[RightHandMiddle4]
204	-28.3390007	0	0.0009999999311	0	0	0	1.0
205	-28.3390007	0	0.0009999999311	0	0	0	1.0
206	-28.3390007	0	0.0009999999311	0	0	0	1.0
207	-28.3390007	0	0.0009999999311	0	0	0	1.0
[RightHandIndex1]
204	-91.08300018	-5.167999744	22.60099792	0.1884763837	1.25192976	6.825599194	1.0
205	-91.08300018	-5.167999744	22.60099792	0.1884763837	1.25192976	6.825599194	1.0
206	-91.08300018	-5.167999744	22.60099792	0.1884763837	1.25192976	6.825599194	1.0
207	-91.08300018	-5.167999744	22.60099792	0.1884763837	1.25192976	6.825599194	1.0
[RightHandIndex2]
204	-36.76399994	0	0	-0.2125098109	-1.388050556	17.40767097	1.0
205	-36.76399994	0	0	-0.2125098109	-1.388050556	17.40767097	1.0
206	-36.76399994	0	0	-0.2125098109	-1.388050556	17.40767097	1.0
207	-36.76399994	0	0	-0.2125098109	-1.388050556	17.40767097	1.0
[RightHandIndex3]
204	-28.83100128	0	0	-0.04576345533	-0.650116384	8.053516388	1.0
205	-28.83100128	0	0	-0.04576345533	-0.650116384	8.053516388	1.0
206	-28.83100128	0	0	-0.04576345533	-0.650116384	8.053516388	1.0
207	-28.83100128	0	0	-0.04576345533	-0.650116384	8.053516388	1.0
[RightHandIndex4]
204	-23.92700005	0	0	0	0	0	1.0
205	-23.92700005	0	0	0	0	0	1.0
206	-23.92700005	0	0	0	0	0	1.0
207	-23.92700005	0	0	0	0	0	1.0
[RightHandThumb1]
204	-24.64799881	-15.72700024	26.82600021	-1.658462524	-0.2891407609	-4.221328735	1.0
205	-24.64799881	-15.72700024	26.82600021	-1.658462524	-0.2891407609	-4.221328735	1.0
206	-24.64799881	-15.72700024	26.82600021	-1.658462524	-0.2891407609	-4.221328735	1.0
207	-24.64799881	-15.72700024	26.82600021	-1.658462524	-0.2891407609	-4.221328735	1.0
[RightHandThumb2]
204	-32.29800034	-18.64699936	18.64699936	22.25259209	-23.88967514	-24.282444	1.0
205	-32.29800034	-18.64699936	18.64699936	22.25259209	-23.88967514	-24.282444	1.0
206	-32.29800034	-18.64699936	18.64699936	22.25259209	-23.88967514	-24.282444	1.0
207	-32.29800034	-18.64699936	18.64699936	22.25259209	-23.88967514	-24.282444	1.0
[RightHandThumb3]
204	-26.52600098	-15.31399918	15.31399918	-14.47830296	-6.743862152	-11.36570263	1.0
205	-26.52600098	-15.31399918	15.31399918	-14.47830296	-6.743862152	-11.36570263	1.0
206	-26.52600098	-15.31399918	15.31399918	-14.47830296	-6.743862152	-11.36570263	1.0
207	-26.52600098	-15.31399918	15.31399918	-14.47830296	-6.743862152	-11.36570263	1.0
[RightHandThumb4]
204	-19.54599953	-11.28499985	11.28499985	0	0	0	1.0
205	-19.54599953	-11.28499985	11.28499985	0	0	0	1.0
206	-19.54599953	-11.28499985	11.28499985	0	0	0	1.0
207	-19.54599953	-11.28499985	11.28499985	0	0	0	1.0
[LeftUpLeg]
204	82.07800293	-67.51699829	-15.99599934	-7.592464447	16.54216194	7.771447659	1.0
205	82.07800293	-67.51699829	-15.99599934	-7.639838219	16.5269165	7.766135693	1.0
206	82.07800293	-67.51699829	-15.99599934	-7.685611725	16.50944138	7.75906086	1.0
207	82.07800293	-67.51699829	-15.99599934	-7.719822407	16.4879303	7.749633312	1.0
[LeftLeg]
204	0	-443.7049866	2.845999956	12.21501446	0.5879816413	4.500985622	1.0
205	0	-443.7049866	2.845999956	12.23442459	0.6172139049	4.503218651	1.0
206	0	-443.7049866	2.845999956	12.23628807	0.6539866328	4.506150723	1.0
207	0	-443.7049866	2.845999956	12.21220112	0.6968121529	4.511834145	1.0
[LeftFoot]
204	0	-444.2789917	-29.8219986	1.100943923	0.6894763112	-7.282731533	1.0
205	0	-444.2789917	-29.8219986	1.10626924	0.6885177493	-7.277915478	1.0
206	0	-444.2789917	-29.8219986	1.117931724	0.6883659363	-7.277752876	1.0
207	0	-444.2789917	-29.8219986	1.140461206	0.6887513995	-7.27826643	1.0
[LeftToeBase]
204	0	-87.28699493	107.1060028	-4.89019537	-5.591901981e-07	-1.076184162e-06	1.0
205	0	-87.28699493	107.1060028	-4.897661209	-1.59392971e-06	-1.238614345e-06	1.0
206	0	-87.28699493	107.1060028	-4.899995327	-4.960560091e-06	1.099655719e-06	1.0
207	0	-87.28699493	107.1060028	-4.897160053	2.006414888e-06	2.22254198e-06	1.0
[RightUpLeg]
204	-82.07800293	-67.51699829	-15.99599934	0.2095352113	-10.62265682	3.230602503	1.0
205	-82.07800293	-67.51699829	-15.99599934	0.1638092548	-10.61409664	3.238773823	1.0
206	-82.07800293	-67.51699829	-15.99599934	0.1183770299	-10.6027565	3.248012066	1.0
207	-82.07800293	-67.51699829	-15.99599934	0.08588912338	-10.58963108	3.257130623	1.0
[RightLeg]
204	0	-443.7049866	2.861999989	9.123011589	-9.145720482	-4.794264317	1.0
205	0	-443.7049866	2.861999989	9.131152153	-9.144116402	-4.792697906	1.0
206	0	-443.7049866	2.861999989	9.124139786	-9.143930435	-4.788140774	1.0
207	0	-443.7049866	2.861999989	9.085980415	-9.146525383	-4.779297352	1.0
[RightFoot]
204	0	-444.2770081	-29.83799934	-4.694317818	-1.324699998	3.289093733	1.0
205	0	-444.2770081	-29.83799934	-4.670004845	-1.326407909	3.290127277	1.0
206	0	-444.2770081	-29.83799934	-4.638957024	-1.327721357	3.289143801	1.0
207	0	-444.2770081	-29.83799934	-4.593755722	-1.329955816	3.285759211	1.0
[RightToeBase]
204	0	-87.28699493	107.1060028	-7.169792175	3.168875992e-06	8.690451523e-07	1.0
205	0	-87.28699493	107.1060028	-7.16759491	-6.688443591e-06	5.180506832e-07	1.0
206	0	-87.28699493	107.1060028	-7.16194582	-5.861872765e-08	-8.778345091e-07	1.0
207	0	-87.28699493	107.1060028	-7.151586056	3.223476597e-05	-2.472631877e-06	1.0
[EndOfFile]
